<svg xmlns="http://www.w3.org/2000/svg"><symbol id="heart" viewBox="0 0 56.2 56"><path d="M27.4 9.3c7-6.4 17.9-5.5 23.5.9a14.2 14.2 0 0 1 2.7 15.3 2.8 2.8 0 0 0 .2 2.8c6 9.9-1.6 20.8-11.2 21.6a13.2 13.2 0 0 1-7.9-1.6 1.3 1.3 0 0 0-1.7.2l-5.6 4.8-8.8-7.6c-4.9-4.3-9.9-8.4-13.7-13.6C2.2 28.6.2 24.8.1 20.3a15.2 15.2 0 0 1 12.7-15 17.1 17.1 0 0 1 14.6 4zm0 7.4L26.2 15c-3-4.8-7.4-6.4-12.8-5.4a10.5 10.5 0 0 0-8.7 12.1 16.8 16.8 0 0 0 3.8 7.7c4.7 6 10.6 10.8 16.3 15.7 2.8 2.4 2.8 2.4 5.4-.3v-.3a14 14 0 0 1 6.8-22 14.7 14.7 0 0 1 12.2 1.3 10.2 10.2 0 0 0-4-12.6 12.3 12.3 0 0 0-8-1.9c-4.5.5-7.5 3.3-9.8 7.4zm14.1 29.5a10.5 10.5 0 1 0-10.4-10.6 10.6 10.6 0 0 0 10.4 10.6z"/><path d="M41 42.4v-1.5a6.3 6.3 0 0 1-2.7-.7l.5-1.8a5.6 5.6 0 0 0 2.6.7c.9 0 1.5-.3 1.5-1s-.5-1-1.7-1.4-2.8-1.4-2.8-2.9a2.9 2.9 0 0 1 2.7-2.8v-1.4h1.5V31a5.7 5.7 0 0 1 2.3.5l-.5 1.8a5.2 5.2 0 0 0-2.3-.5c-1 0-1.4.4-1.4.9s.6.8 1.9 1.4 2.6 1.5 2.6 2.9a3 3 0 0 1-2.8 2.9v1.6z"/></symbol><symbol id="house" viewBox="0 0 56.2 56"><path d="M6.5 52.3V34.2a1.2 1.2 0 0 1 .3-.8l21-21.1.3-.3.5.4 20.7 20.9a1.2 1.2 0 0 1 .4.9v18.1h-12V40.7a9.7 9.7 0 0 0-2.1-6.3 9.3 9.3 0 0 0-6.1-3.5 9.6 9.6 0 0 0-10.7 7.5 10.7 10.7 0 0 0-.2 2.1v11.9z"/><path d="M56.2 29l-3.4 3.4L28.2 7.7 3.5 32.4 0 28.9 28.1.9z"/></symbol><symbol id="instagram" viewBox="0 0 56.2 56"><circle cx="27.9" cy="28.1" r="22.9" fill="#fff"/><path d="M0 28.1a28.1 28.1 0 1 1 28 28.1A28.1 28.1 0 0 1 0 28.1zm12.8.5h-.1v9a5.9 5.9 0 0 0 6.3 6.2h18a5.9 5.9 0 0 0 6.2-6q.1-9.3 0-18.5a5.8 5.8 0 0 0-5.9-5.9H18.4a5.6 5.6 0 0 0-5.6 5.3c-.1 3.2 0 6.5 0 9.8z"/><path d="M35.7 25.4h4.5v12c0 2.3-1.1 3.4-3.4 3.4H18.9a3 3 0 0 1-3.3-3.3V25.4h4.5c-1.3 4.4-.2 8 3.8 10.4a7.6 7.6 0 0 0 8.7-.4c3.5-2.6 4.4-6 3.1-10z"/><path d="M27.9 33.9a5.4 5.4 0 1 1 5.4-5.4 5.4 5.4 0 0 1-5.4 5.4zm6.6-17.1h5.1v5.1h-5.1z"/></symbol><symbol id="paw" viewBox="0 0 56.2 56"><path d="M42.2 54.7l-3.5-.9-3.4-1.3a14.2 14.2 0 0 0-10.6-.2 64 64 0 0 1-7.1 2.1c-4.3.9-7.6-2.6-6.7-6.9a27.8 27.8 0 0 1 7.1-14c3.9-4 8.7-5.8 14.3-4.3a13.2 13.2 0 0 1 5.5 3.3 38.6 38.6 0 0 1 9 13 13.8 13.8 0 0 1 .8 3.9 4.6 4.6 0 0 1-4.9 5h-.6zm2.3-45.5c-.2 4.5-1.5 8.1-5.2 10.7s-5.9 1-7.7-1.5a10.1 10.1 0 0 1-1.8-6.5 13.5 13.5 0 0 1 2.8-8.3c1.7-2.2 3.9-3.7 6.7-3s4.3 3.1 4.9 5.8a24.7 24.7 0 0 1 .3 2.8zm-18.3 3.5a9.3 9.3 0 0 1-1.6 5.8 5.1 5.1 0 0 1-7.2 1.6c-3.6-2.1-5.2-5.5-5.6-9.6a25.4 25.4 0 0 1 .2-4.4 4.4 4.4 0 0 1 .4-1.3c1.8-4.4 6-5.6 9.7-2.5s4 6.4 4.1 10.4zm30 11.1a11.3 11.3 0 0 1-4 9.3 11.6 11.6 0 0 1-3.8 2 4.3 4.3 0 0 1-5-1.7 8 8 0 0 1-1.5-6.5 12.3 12.3 0 0 1 4.6-8.3c1.9-1.4 4-2.4 6.4-1.2s3.4 3.4 3.3 6c-.1 0 0 .2 0 .4zM0 24.5a24.7 24.7 0 0 1 .6-3.2 5.2 5.2 0 0 1 6.8-3 12.3 12.3 0 0 1 6.9 13.8 5.1 5.1 0 0 1-6.8 3.7C3.3 34.2.1 29.6 0 24.5z"/></symbol><symbol id="twitter" viewBox="0 0 56.2 56"><circle cx="28.1" cy="28" r="22.9" fill="#fff"/><path d="M0 28.1a28.1 28.1 0 1 1 28 28.1A28.1 28.1 0 0 1 0 28.1zm45.7-9l-.2-.2-1.2.4-1.2.3-1.3.2c2.1-1.9 2.7-2.8 2.8-3.7L41 17.5a1 1 0 0 1-1.1-.3 7 7 0 0 0-10.5 1.2 7.3 7.3 0 0 0-1.1 5.7 20.4 20.4 0 0 1-14.6-7.4c-1.7 3.7-1 6.8 2.1 9.4h-.1l-2.9-.8c-.1 3.1 1.7 5.3 5.4 7h-3a7.3 7.3 0 0 0 6.6 4.9 14 14 0 0 1-4.8 2.5 15.8 15.8 0 0 1-5.3.5l.4.3a19.7 19.7 0 0 0 9.4 2.7 19.2 19.2 0 0 0 12.3-3.5 20.2 20.2 0 0 0 8.6-16.8 1.4 1.4 0 0 1 .5-1.1z"/></symbol><symbol id="facebook" viewBox="0 0 56.2 56"><path fill="#fff" d="M56 28a28 28 0 1 0-28 28 28 28 0 0 0 28-28z"/><path d="M56 28A28 28 0 1 1 28.1 0 28 28 0 0 1 56 28zM35.9 10.5c-2.4.1-4.8 0-7.1.3a5.5 5.5 0 0 0-4.8 3.8 14 14 0 0 0-.6 3.4c-.1 1.2 0 2.4 0 3.7H20v6.1h3.4v17.3h7.2V27.8h4.8l.6-6.1h-5.4v-3.9a1.4 1.4 0 0 1 .5-1 2.4 2.4 0 0 1 1.2-.3h3.5z"/></symbol></svg>