<svg xmlns="http://www.w3.org/2000/svg" width="76.8" height="76.8" data-name="Layer 1" viewBox="0 0 56.2 56"><path d="M0 28.1a28.1 28.1 0 1 1 28 28.1A28.1 28.1 0 0 1 0 28.1zm12.8.5h-.1v9a5.9 5.9 0 0 0 6.3 6.2h18a5.9 5.9 0 0 0 6.2-6q.1-9.3 0-18.5a5.8 5.8 0 0 0-5.9-5.9H18.4a5.6 5.6 0 0 0-5.6 5.3c-.1 3.2 0 6.5 0 9.8z"/><path d="M35.7 25.4h4.5v12c0 2.3-1.1 3.4-3.4 3.4H18.9a3 3 0 0 1-3.3-3.3V25.4h4.5c-1.3 4.4-.2 8 3.8 10.4a7.6 7.6 0 0 0 8.7-.4c3.5-2.6 4.4-6 3.1-10z"/><path d="M27.9 33.9a5.4 5.4 0 1 1 5.4-5.4 5.4 5.4 0 0 1-5.4 5.4zm6.6-17.1h5.1v5.1h-5.1z"/></svg>