<svg id="Layer_1" data-name="Layer 1" xmlns="http://www.w3.org/2000/svg" width="0.2in" height="0.2in" viewBox="0 0 16 16"><title>Logo 16px</title><ellipse cx="7.9" cy="8" rx="7.1" ry="7.3" fill="none" stroke="#f04d25" stroke-miterlimit="10" stroke-width="1.26"/><path d="M12.7,7.4a.3.3,0,0,0-.3-.2h-.5A2.3,2.3,0,0,1,10,6.5c-.9-1.2-2.9-.9-2.9-.9A2.3,2.3,0,0,0,5.3,4.4a.3.3,0,0,0-.4.4,7.8,7.8,0,0,0,.9,2C4.6,9,.6,10.5.6,10.5s3.1,3.7,5.5,4.8c2.3-1.6-.5-7.1,4.9-5.6,1,.3,1.4-1.2,1.5-1.9A.3.3,0,0,0,12.7,7.4Z" fill="#f04d25"/></svg>