<?xml version="1.0" encoding="utf-8"?>
<!-- Generator: Adobe Illustrator 21.0.2, SVG Export Plug-In . SVG Version: 6.00 Build 0)  -->
<!DOCTYPE svg PUBLIC "-//W3C//DTD SVG 1.1//EN" "http://www.w3.org/Graphics/SVG/1.1/DTD/svg11.dtd">
<svg version="1.1" id="Layer_1" xmlns="http://www.w3.org/2000/svg" xmlns:xlink="http://www.w3.org/1999/xlink" x="0px" y="0px"
	 viewBox="0 0 64.8 64.8" style="enable-background:new 0 0 64.8 64.8;" xml:space="preserve">
<style type="text/css">
	.st0{fill:none;stroke:#F04D25;stroke-width:4.95;stroke-miterlimit:10;}
	.st1{fill:#F04D25;}
</style>
<title>Logo 64px</title>
<ellipse class="st0" cx="32.7" cy="32" rx="28" ry="28.8"/>
<path class="st1" d="M52.8,29.5c-0.2-0.5-0.6-0.8-1.1-0.8h-1.1c-0.4,0-0.8,0.2-1,0.6c-2.9,0.1-5.7-1.1-7.5-3.3
	c-3.7-4.9-11.5-3.6-11.5-3.6c-1.2-3.1-5-4.3-7.2-4.7c-0.7-0.1-1.4,0.4-1.5,1.1c0,0.1,0,0.3,0,0.4c0.6,3.3,3.4,8,3.4,8
	c-4.6,9-20.8,14.6-20.8,14.6s12.4,14.7,22,19c9-6.2-2-27.9,19.5-22.3c3.9,1,5.5-4.9,5.9-7.5C52.6,30.8,53,30.2,52.8,29.5
	C52.9,29.5,52.8,29.5,52.8,29.5z"/>
</svg>
