<svg id="Layer_1" data-name="Layer 1" xmlns="http://www.w3.org/2000/svg" width="0.9in" height="0.9in" viewBox="0 0 64 64"><title>Logo 64px</title><ellipse cx="32.3" cy="31.6" rx="27.7" ry="28.4" fill="none" stroke="#f04d25" stroke-miterlimit="10" stroke-width="4.95"/><path d="M51.2,29.1a1.2,1.2,0,0,0-1.1-.8H49a1.1,1.1,0,0,0-1,.6,9,9,0,0,1-7.4-3.3c-3.7-4.8-11.4-3.6-11.4-3.6-1.2-3.1-4.9-4.2-7.1-4.6a1.3,1.3,0,0,0-1.5,1.5c.6,3.3,3.4,7.9,3.4,7.9C19.5,35.7,3.5,41.2,3.5,41.2S15.7,55.7,25.2,60c8.9-6.1-2-27.6,19.3-22,3.9,1,5.4-4.8,5.8-7.4A1.2,1.2,0,0,0,51.2,29.1Z" fill="#f04d25"/></svg>