<svg id="Layer_1" data-name="Layer 1" xmlns="http://www.w3.org/2000/svg" width="3.6in" height="3.6in" viewBox="0 0 256 256.3"><title>Logo 256px</title><ellipse cx="127.7" cy="127.6" rx="111.8" ry="114.7" fill="none" stroke="#f04d25" stroke-miterlimit="10" stroke-width="19.97"/><path d="M203.8,117.7a4.7,4.7,0,0,0-4.5-3.4h-4.4a4.5,4.5,0,0,0-3.9,2.3c-8.7.1-21.2-2.1-30-13.5C146,83.9,114.8,88.8,114.8,88.8c-4.9-12.3-20-16.8-28.6-18.4a5.3,5.3,0,0,0-6.1,6.2c2.4,13.2,13.6,31.9,13.6,31.9-17.8,35.7-82.1,57.9-82.1,57.9S60.7,224.8,99,242.3c35.8-24.7-7.9-111.4,77.7-88.8,15.7,4.1,21.6-19.4,23.6-29.9A4.7,4.7,0,0,0,203.8,117.7Z" fill="#f04d25"/></svg>