<?xml version="1.0" encoding="utf-8"?>
<!-- Generator: Adobe Illustrator 21.0.2, SVG Export Plug-In . SVG Version: 6.00 Build 0)  -->
<!DOCTYPE svg PUBLIC "-//W3C//DTD SVG 1.1//EN" "http://www.w3.org/Graphics/SVG/1.1/DTD/svg11.dtd">
<svg version="1.1" id="Layer_1" xmlns="http://www.w3.org/2000/svg" xmlns:xlink="http://www.w3.org/1999/xlink" x="0px" y="0px"
	 viewBox="0 0 28.8 28.8" style="enable-background:new 0 0 28.8 28.8;" xml:space="preserve">
<style type="text/css">
	.st0{fill:none;stroke:#F04D25;stroke-width:2.51;stroke-miterlimit:10;}
	.st1{fill:#F04D25;}
</style>
<title>Logo 32px</title>
<ellipse class="st0" cx="14.6" cy="14.4" rx="12.7" ry="13"/>
<path class="st1" d="M23.7,13.3c-0.1-0.2-0.3-0.4-0.5-0.4h-0.5c-0.2,0-0.4,0.1-0.5,0.3c-1.3,0-2.5-0.5-3.3-1.5
	c-1.7-2.2-5.2-1.6-5.2-1.6c-0.5-1.4-2.2-2-3.2-2.2C10,7.9,9.7,8.1,9.6,8.4c0,0.1,0,0.1,0,0.2c0.3,1.3,0.9,2.5,1.5,3.6
	c-2,4.1-9.3,6.6-9.3,6.6s5.6,6.7,9.9,8.6c4.1-2.8-0.9-12.6,8.8-10.1c1.8,0.4,2.4-2.2,2.7-3.4C23.6,13.9,23.7,13.6,23.7,13.3z"/>
</svg>
