<svg id="Layer_1" data-name="Layer 1" xmlns="http://www.w3.org/2000/svg" width="0.4in" height="0.4in" viewBox="0 0 32 32"><title>Logo 32px</title><ellipse cx="16.2" cy="16" rx="14.1" ry="14.4" fill="none" stroke="#f04d25" stroke-miterlimit="10" stroke-width="2.51"/><path d="M25.7,14.8a.6.6,0,0,0-.6-.4h-.6a.6.6,0,0,0-.5.3A4.6,4.6,0,0,1,20.3,13c-1.9-2.4-5.8-1.8-5.8-1.8C13.9,9.6,12,9,10.9,8.8a.7.7,0,0,0-.8.8,15.4,15.4,0,0,0,1.7,4C9.6,18.1,1.5,20.9,1.5,20.9s6.2,7.4,11,9.6c4.5-3.1-1-14,9.8-11.2,2,.5,2.7-2.4,3-3.8A.6.6,0,0,0,25.7,14.8Z" fill="#f04d25"/></svg>