<?xml version="1.0" encoding="utf-8"?>
<!-- Generator: Adobe Illustrator 21.0.2, SVG Export Plug-In . SVG Version: 6.00 Build 0)  -->
<!DOCTYPE svg PUBLIC "-//W3C//DTD SVG 1.1//EN" "http://www.w3.org/Graphics/SVG/1.1/DTD/svg11.dtd">
<svg version="1.1" id="Layer_1" xmlns="http://www.w3.org/2000/svg" xmlns:xlink="http://www.w3.org/1999/xlink" x="0px" y="0px"
	 viewBox="0 0 259.2 259.2" style="enable-background:new 0 0 259.2 259.2;" xml:space="preserve">
<style type="text/css">
	.st0{fill:none;stroke:#F04D25;stroke-width:19.97;stroke-miterlimit:10;}
	.st1{fill:#F04D25;}
</style>
<title>Logo 256px</title>
<ellipse class="st0" cx="129.3" cy="129" rx="113.1" ry="116"/>
<path class="st1" d="M207.3,119c-0.6-2-2.4-3.4-4.6-3.4h-4.4c-1.6,0-3.1,0.9-3.9,2.3c-8.8,0.1-21.4-2.1-30.3-13.7
	c-15.2-19.4-46.7-14.5-46.7-14.5c-5-12.4-20.2-17-28.9-18.6c-2.9-0.5-5.7,1.5-6.2,4.4c-0.1,0.6-0.1,1.3,0,1.9
	c2.4,13.3,13.8,32.3,13.8,32.3c-18,36.1-83,58.6-83,58.6s49.7,59.1,88.4,76.8c36.2-25-8-112.7,78.6-89.8
	c15.9,4.1,21.8-19.6,23.9-30.2c2.6-0.6,4.2-3.1,3.6-5.7C207.3,119.2,207.3,119.1,207.3,119z"/>
</svg>
