<svg xmlns="http://www.w3.org/2000/svg" width="76.8" height="76.8" data-name="Layer 1" viewBox="0 0 56.2 56"><path d="M42.2 54.7l-3.5-.9-3.4-1.3a14.2 14.2 0 0 0-10.6-.2 64 64 0 0 1-7.1 2.1c-4.3.9-7.6-2.6-6.7-6.9a27.8 27.8 0 0 1 7.1-14c3.9-4 8.7-5.8 14.3-4.3a13.2 13.2 0 0 1 5.5 3.3 38.6 38.6 0 0 1 9 13 13.8 13.8 0 0 1 .8 3.9 4.6 4.6 0 0 1-4.9 5h-.6zm2.3-45.5c-.2 4.5-1.5 8.1-5.2 10.7s-5.9 1-7.7-1.5a10.1 10.1 0 0 1-1.8-6.5 13.5 13.5 0 0 1 2.8-8.3c1.7-2.2 3.9-3.7 6.7-3s4.3 3.1 4.9 5.8a24.7 24.7 0 0 1 .3 2.8zm-18.3 3.5a9.3 9.3 0 0 1-1.6 5.8 5.1 5.1 0 0 1-7.2 1.6c-3.6-2.1-5.2-5.5-5.6-9.6a25.4 25.4 0 0 1 .2-4.4 4.4 4.4 0 0 1 .4-1.3c1.8-4.4 6-5.6 9.7-2.5s4 6.4 4.1 10.4zm30 11.1a11.3 11.3 0 0 1-4 9.3 11.6 11.6 0 0 1-3.8 2 4.3 4.3 0 0 1-5-1.7 8 8 0 0 1-1.5-6.5 12.3 12.3 0 0 1 4.6-8.3c1.9-1.4 4-2.4 6.4-1.2s3.4 3.4 3.3 6c-.1 0 0 .2 0 .4zM0 24.5a24.7 24.7 0 0 1 .6-3.2 5.2 5.2 0 0 1 6.8-3 12.3 12.3 0 0 1 6.9 13.8 5.1 5.1 0 0 1-6.8 3.7C3.3 34.2.1 29.6 0 24.5z"/></svg>