<svg xmlns="http://www.w3.org/2000/svg" width="76.8" height="76.8" data-name="Layer 1" viewBox="0 0 56.2 56"><path d="M0 28.1a28.1 28.1 0 1 1 28 28.1A28.1 28.1 0 0 1 0 28.1zm45.7-9l-.2-.2-1.2.4-1.2.3-1.3.2c2.1-1.9 2.7-2.8 2.8-3.7L41 17.5a1 1 0 0 1-1.1-.3 7 7 0 0 0-10.5 1.2 7.3 7.3 0 0 0-1.1 5.7 20.4 20.4 0 0 1-14.6-7.4c-1.7 3.7-1 6.8 2.1 9.4h-.1l-2.9-.8c-.1 3.1 1.7 5.3 5.4 7h-3a7.3 7.3 0 0 0 6.6 4.9 14 14 0 0 1-4.8 2.5 15.8 15.8 0 0 1-5.3.5l.4.3a19.7 19.7 0 0 0 9.4 2.7 19.2 19.2 0 0 0 12.3-3.5 20.2 20.2 0 0 0 8.6-16.8 1.4 1.4 0 0 1 .5-1.1z"/></svg>